<?xml version="1.0" standalone="no"?>
<!DOCTYPE svg PUBLIC "-//W3C//DTD SVG 20010904//EN"
 "http://www.w3.org/TR/2001/REC-SVG-20010904/DTD/svg10.dtd">
<svg version="1.0" xmlns="http://www.w3.org/2000/svg"
 width="82.000000pt" height="82.000000pt" viewBox="0 0 82.000000 82.000000"
 preserveAspectRatio="xMidYMid meet">
<metadata>
Created by potrace 1.11, written by Peter Selinger 2001-2013
</metadata>
<g transform="translate(0.000000,82.000000) scale(0.100000,-0.100000)"
fill="#000000" stroke="none">
<path d="M330 782 c-61 -17 -104 -52 -135 -111 -18 -35 -22 -250 -5 -282 10
-18 23 -19 219 -19 169 0 211 3 221 14 12 16 15 250 3 283 -11 30 -55 83 -68
83 -8 0 -21 7 -29 15 -17 18 -162 29 -206 17z m-38 -339 c8 -10 5 -13 -10 -13
-26 0 -35 25 -20 53 l13 22 3 -25 c2 -14 9 -31 14 -37z m273 2 c-25 -18 -55
-21 -37 -3 7 7 12 23 12 37 l0 25 22 -22 c22 -21 22 -22 3 -37z m-195 9 c0
-19 -5 -24 -27 -24 -25 0 -25 1 -10 18 10 10 17 24 17 31 0 7 5 9 10 6 6 -3
10 -17 10 -31z m110 7 c14 -27 13 -31 -10 -31 -15 0 -20 7 -20 25 0 30 15 33
30 6z"/>
<path d="M623 333 c-17 -3 -23 -12 -24 -31 -4 -73 -10 -109 -28 -174 -11 -39
-25 -76 -31 -82 -7 -7 -69 -12 -150 -14 -127 -4 -140 -2 -140 13 0 10 -8 25
-18 34 -20 18 -52 109 -52 150 0 62 -12 101 -31 101 -17 0 -19 -9 -19 -89 0
-75 -3 -92 -18 -103 -16 -12 -52 -99 -52 -127 0 -8 110 -11 350 -11 340 0 350
1 350 19 0 11 -4 22 -9 25 -5 3 -12 21 -15 41 -4 19 -16 41 -28 49 -20 14 -21
21 -15 111 l6 95 -27 -1 c-15 -1 -37 -4 -49 -6z"/>
</g>
</svg>
